<svg xmlns="http://www.w3.org/2000/svg" width="40" height="40" viewBox="0 0 40 40" fill="none">
  <rect width="40" height="40" rx="8" fill="#0a5f9e"/>
  <path d="M20 10C14.48 10 10 14.48 10 20C10 25.52 14.48 30 20 30C25.52 30 30 25.52 30 20C30 14.48 25.52 10 20 10ZM20 28C15.59 28 12 24.41 12 20C12 15.59 15.59 12 20 12C24.41 12 28 15.59 28 20C28 24.41 24.41 28 20 28Z" fill="white"/>
  <path d="M21 15H19V21H25V19H21V15Z" fill="white"/>
  <path d="M20 6C20.5523 6 21 5.55228 21 5C21 4.44772 20.5523 4 20 4C19.4477 4 19 4.44772 19 5C19 5.55228 19.4477 6 20 6Z" fill="white"/>
  <path d="M20 36C20.5523 36 21 35.5523 21 35C21 34.4477 20.5523 34 20 34C19.4477 34 19 34.4477 19 35C19 35.5523 19.4477 36 20 36Z" fill="white"/>
  <path d="M5 21C5.55228 21 6 20.5523 6 20C6 19.4477 5.55228 19 5 19C4.44772 19 4 19.4477 4 20C4 20.5523 4.44772 21 5 21Z" fill="white"/>
  <path d="M35 21C35.5523 21 36 20.5523 36 20C36 19.4477 35.5523 19 35 19C34.4477 19 34 19.4477 34 20C34 20.5523 34.4477 21 35 21Z" fill="white"/>
</svg>
